<?xml version="1.0" encoding="UTF-8" standalone="no"?>
<!-- Created with Inkscape (http://www.inkscape.org/) -->

<svg
   width="297mm"
   height="210mm"
   viewBox="0 0 297 210.00001"
   version="1.1"
   id="svg5"
   xml:space="preserve"
   inkscape:export-filename="ayam-geprek.png"
   inkscape:export-xdpi="96"
   inkscape:export-ydpi="96"
   inkscape:version="1.2.2 (732a01da63, 2022-12-09)"
   sodipodi:docname="ayam-geprek.svg"
   xmlns:inkscape="http://www.inkscape.org/namespaces/inkscape"
   xmlns:sodipodi="http://sodipodi.sourceforge.net/DTD/sodipodi-0.dtd"
   xmlns="http://www.w3.org/2000/svg"
   xmlns:svg="http://www.w3.org/2000/svg"><sodipodi:namedview
     id="namedview7"
     pagecolor="#ffffff"
     bordercolor="#000000"
     borderopacity="0.25"
     inkscape:showpageshadow="2"
     inkscape:pageopacity="0.0"
     inkscape:pagecheckerboard="0"
     inkscape:deskcolor="#d1d1d1"
     inkscape:document-units="mm"
     showgrid="false"
     inkscape:zoom="0.33559951"
     inkscape:cx="353.09944"
     inkscape:cy="548.27255"
     inkscape:window-width="1360"
     inkscape:window-height="705"
     inkscape:window-x="-8"
     inkscape:window-y="-8"
     inkscape:window-maximized="1"
     inkscape:current-layer="layer1" /><defs
     id="defs2"><inkscape:path-effect
       effect="pts2ellipse"
       id="path-effect1222"
       is_visible="true"
       lpeversion="1"
       method="auto"
       gen_arc="false"
       arc_other="false"
       slice_arc="false"
       gen_isometric_frame="false"
       draw_axes="false"
       gen_perspective_frame="false"
       draw_perspective_axes="false"
       rot_axes="0"
       draw_ori_path="false" /><inkscape:path-effect
       effect="attach_path"
       id="path-effect1220"
       lpeversion="1"
       startcurvestart="0,0 , 20,0"
       is_visible="true"
       startpath=""
       startposition="0"
       startcurveend="0,0 , 20,0"
       endpath=""
       endposition="0"
       endcurvestart="0,0 , 20,0"
       endcurveend="0,0 , 20,0" /><inkscape:path-effect
       effect="join_type"
       id="path-effect1218"
       is_visible="true"
       lpeversion="1"
       linecap_type="butt"
       line_width="0.26458299"
       linejoin_type="extrp_arc"
       miter_limit="100"
       attempt_force_join="true" /><inkscape:path-effect
       effect="powerstroke"
       id="path-effect1056"
       is_visible="true"
       lpeversion="1"
       offset_points="0,4.9921382"
       not_jump="false"
       sort_points="true"
       interpolator_type="CubicBezierJohan"
       interpolator_beta="0.2"
       start_linecap_type="zerowidth"
       linejoin_type="extrp_arc"
       miter_limit="4"
       scale_width="1"
       end_linecap_type="zerowidth" /><inkscape:path-effect
       effect="fill_between_many"
       method="bsplinespiro"
       linkedpaths="#path1054,0,1"
       id="path-effect1058"
       is_visible="true"
       lpeversion="0"
       join="true"
       close="true"
       autoreverse="true" /></defs><g
     inkscape:label="Layer 1"
     inkscape:groupmode="layer"
     id="layer1"><rect
       style="opacity:1;fill:#e1d5d5;fill-opacity:1;stroke:none;stroke-width:0.264583;stroke-linecap:square;stroke-linejoin:round;stroke-opacity:1"
       id="rect3872"
       width="297"
       height="210"
       x="0"
       y="0" /><g
       id="g3881"
       transform="matrix(0.56655608,0,0,0.56655608,153.10211,25.680774)"><ellipse
         style="opacity:1;fill:#ffffff;stroke:none;stroke-width:0.275304;stroke-linecap:square;stroke-linejoin:round;stroke-opacity:1"
         id="path1633"
         cx="-8.1229477"
         cy="140.00243"
         rx="72.755905"
         ry="71.830826" /><g
         id="g1640"
         transform="matrix(1.0405171,0,0,1.0405171,-117.3772,-14.51433)"><path
           id="path1280"
           style="fill:#dc0000;stroke:none;stroke-width:0.264583;stroke-linecap:square;stroke-linejoin:round;stroke-opacity:1"
           inkscape:transform-center-x="0.0582131"
           inkscape:transform-center-y="-11.715349"
           d="m 64.242309,172.05937 40.758031,0.10083 40.75735,0.10063 -20.29152,-35.3475 -0.43814,-0.76323 c -0.75045,1.65058 -2.17082,3.32051 -4.44909,4.79267 -6.69611,4.32685 -9.99109,-1.33273 -17.22899,1.96433 -7.237339,3.29674 -9.683173,9.29325 -10.795368,10.66075 -0.990805,1.21731 -4.344356,2.9417 -6.23446,-0.29891 -0.232141,-0.39801 -0.44206,-0.87085 -0.622966,-1.42877 -1.654014,-5.10106 2.086643,-9.50409 6.038662,-12.89959 3.952031,-3.39547 6.541673,-9.25508 6.541673,-9.25508 0,0 0.72259,1.83585 0.49292,3.57287 -0.2297,1.73701 -1.83008,4.41419 -1.83008,4.41419 0,0 3.811119,-3.23306 5.259619,-5.16918 1.44847,-1.93609 2.93921,-6.25097 2.93921,-6.25097 0,0 1.02422,1.56207 1.16728,4.01695 0.14309,2.45487 -0.90642,4.97378 -0.90642,4.97378 0,0 2.35209,-1.61429 4.46216,-4.53324 2.11004,-2.91892 2.90935,-6.57287 2.90935,-6.57287 0,0 1.52098,1.32213 2.19267,3.76975 0.67169,2.44758 -0.76041,5.36308 -0.76041,5.36308 0,0 3.20884,-4.08937 6.23476,-5.11465 l -15.2639,-26.58939 -20.465818,35.24688 z m 39.811871,-14.90199 a 2.6696274,2.6696274 0 0 1 0.98615,-3.64432 2.6696274,2.6696274 0 0 1 3.64432,0.98616 2.6696274,2.6696274 0 0 1 -0.98615,3.64432 2.6696274,2.6696274 0 0 1 -3.64433,-0.98616 z" /><text
           xml:space="preserve"
           style="font-style:normal;font-variant:normal;font-weight:bold;font-stretch:normal;font-size:10.1444px;line-height:1.25;font-family:'Nirmala UI';-inkscape-font-specification:'Nirmala UI Bold';stroke-width:0.317012"
           x="63.832954"
           y="185.10788"
           id="text1407"><tspan
             sodipodi:role="line"
             id="tspan1405"
             style="font-style:normal;font-variant:normal;font-weight:bold;font-stretch:normal;font-size:10.1444px;font-family:'Nirmala UI';-inkscape-font-specification:'Nirmala UI Bold';stroke-width:0.317012"
             x="63.832954"
             y="185.10788">New Geprek ABG</tspan></text><text
           xml:space="preserve"
           style="font-style:normal;font-variant:normal;font-weight:normal;font-stretch:normal;font-size:5.29167px;line-height:1.25;font-family:'Nirmala UI';-inkscape-font-specification:'Nirmala UI';stroke-width:0.264583"
           x="82.178383"
           y="194.18877"
           id="text1461"><tspan
             sodipodi:role="line"
             id="tspan1459"
             style="font-style:normal;font-variant:normal;font-weight:normal;font-stretch:normal;font-family:'Nirmala UI';-inkscape-font-specification:'Nirmala UI';stroke-width:0.264583"
             x="82.178383"
             y="194.18877">Ayam Bakar Geprek</tspan></text></g></g></g></svg>
