<?xml version="1.0" encoding="UTF-8" standalone="no"?>
<!-- Created with Inkscape (http://www.inkscape.org/) -->

<svg
   width="4000"
   height="4000"
   viewBox="0 0 1058.3333 1058.3333"
   version="1.1"
   id="svg5"
   inkscape:version="1.2.2 (732a01da63, 2022-12-09)"
   sodipodi:docname="sepsupriatnaa-ldark.svg"
   inkscape:export-filename="..\Documents\web portfolio\my-portfolio\public\logo-sepsupriatnaa.png"
   inkscape:export-xdpi="96"
   inkscape:export-ydpi="96"
   xmlns:inkscape="http://www.inkscape.org/namespaces/inkscape"
   xmlns:sodipodi="http://sodipodi.sourceforge.net/DTD/sodipodi-0.dtd"
   xmlns="http://www.w3.org/2000/svg"
   xmlns:svg="http://www.w3.org/2000/svg">
  <sodipodi:namedview
     id="namedview7"
     pagecolor="#ffffff"
     bordercolor="#000000"
     borderopacity="0.25"
     inkscape:showpageshadow="2"
     inkscape:pageopacity="0.0"
     inkscape:pagecheckerboard="0"
     inkscape:deskcolor="#d1d1d1"
     inkscape:document-units="px"
     showgrid="false"
     inkscape:zoom="0.074331525"
     inkscape:cx="2105.4324"
     inkscape:cy="2313.9576"
     inkscape:window-width="1366"
     inkscape:window-height="705"
     inkscape:window-x="-8"
     inkscape:window-y="-8"
     inkscape:window-maximized="1"
     inkscape:current-layer="layer1" />
  <defs
     id="defs2" />
  <g
     inkscape:label="Layer 1"
     inkscape:groupmode="layer"
     id="layer1">
    <path
       id="path234"
       style="opacity:1;fill:#ffffff;fill-opacity:1;stroke-width:4.39149;stroke-linecap:square;stroke-linejoin:round"
       d="M 661.8507,34.852557 A 511.75055,511.75055 0 0 0 35.088395,396.71808 511.75055,511.75055 0 0 0 19.203291,491.78433 345.73625,182.76804 15 0 1 297.21543,495.33524 345.73625,182.76804 15 0 1 583.86866,761.36201 345.73625,182.76804 15 0 1 202.60763,848.41645 345.73625,182.76804 15 0 1 103.52664,812.75661 511.75055,511.75055 0 0 0 396.94908,1023.4795 511.75055,511.75055 0 0 0 1023.7149,661.62015 511.75055,511.75055 0 0 0 1039.13,574.51336 345.73625,182.76804 15 0 1 748.81637,575.34433 345.73625,182.76804 15 0 1 462.16324,309.31763 345.73625,182.76804 15 0 1 843.42422,222.26312 345.73625,182.76804 15 0 1 971.94807,272.2249 511.75055,511.75055 0 0 0 661.8507,34.84887 Z" />
  </g>
</svg>
