<?xml version="1.0" encoding="UTF-8" standalone="no"?>
<!-- Created with Inkscape (http://www.inkscape.org/) -->

<svg
   width="210mm"
   height="297mm"
   viewBox="0 0 210 297"
   version="1.1"
   id="svg5"
   inkscape:export-filename="sepsupriatnaa.png"
   inkscape:export-xdpi="96"
   inkscape:export-ydpi="96"
   inkscape:version="1.2.2 (732a01da63, 2022-12-09)"
   sodipodi:docname="sepsupriatnaa.svg"
   xmlns:inkscape="http://www.inkscape.org/namespaces/inkscape"
   xmlns:sodipodi="http://sodipodi.sourceforge.net/DTD/sodipodi-0.dtd"
   xmlns="http://www.w3.org/2000/svg"
   xmlns:svg="http://www.w3.org/2000/svg">
  <sodipodi:namedview
     id="namedview7"
     pagecolor="#ffffff"
     bordercolor="#000000"
     borderopacity="0.25"
     inkscape:showpageshadow="2"
     inkscape:pageopacity="0.0"
     inkscape:pagecheckerboard="0"
     inkscape:deskcolor="#d1d1d1"
     inkscape:document-units="mm"
     showgrid="false"
     inkscape:zoom="0.25"
     inkscape:cx="9.9999999"
     inkscape:cy="524"
     inkscape:window-width="1366"
     inkscape:window-height="705"
     inkscape:window-x="-8"
     inkscape:window-y="-8"
     inkscape:window-maximized="1"
     inkscape:current-layer="layer1" />
  <defs
     id="defs2">
    <linearGradient
       id="linearGradient1634"
       inkscape:swatch="solid">
      <stop
         style="stop-color:#45ff00;stop-opacity:1;"
         offset="0"
         id="stop1632" />
    </linearGradient>
  </defs>
  <g
     inkscape:label="Layer 1"
     inkscape:groupmode="layer"
     id="layer1">
    <g
       id="g2949"
       transform="translate(1.3528748,-1.170929)">
      <rect
         style="opacity:1;fill:#364e59;fill-opacity:1;fill-rule:nonzero;stroke:none;stroke-width:2.11667;stroke-linecap:square;stroke-linejoin:round;stroke-dasharray:none"
         id="rect2945"
         width="92.04763"
         height="163.14131"
         x="57.62331"
         y="68.100273"
         ry="46.023815"
         rx="46.023815" />
      <path
         id="path2680"
         style="color:#000000;fill:#ffc022;fill-rule:evenodd;stroke-width:1;-inkscape-stroke:none"
         d="M 135.03383,106.15957 C 132.22141,95.821481 123.5204,87.385452 112.5381,85.156868 106.12354,83.855185 99.780577,84.726167 94.18172,87.213773 l -5.5e-4,1.44e-4 c -9.331428,4.14602 -16.592672,12.779495 -18.666574,23.310673 -3.677453,18.67411 9.439187,36.75941 27.859034,40.29492 l 4.1e-4,-7.1e-4 c 17.17581,3.24324 29.47534,20.09691 26.11059,37.45802 -3.02512,15.60872 -18.39589,26.78002 -34.18498,23.62538 -14.042085,-2.8056 -24.083869,-16.69396 -21.139169,-30.91044 2.584193,-12.47607 14.990224,-21.38894 27.633229,-18.65401 10.91087,2.36022 18.6999,13.28441 16.17452,24.35272 -2.1326,9.34682 -11.57823,16.01288 -21.06998,13.69679 -7.784388,-1.89947 -13.335198,-9.86915 -11.228131,-17.78122 1.65759,-6.22433 8.156981,-10.66534 14.483881,-8.76727 4.66759,1.40028 8.0162,6.43835 6.32832,11.16879 -0.55559,1.55707 -1.77607,2.95504 -3.21951,3.72552 -1.44344,0.77048 -3.03907,0.94372 -4.592423,0.20902 -0.772397,-0.36532 -1.585807,-1.20152 -1.945167,-2.05453 -0.35939,-0.853 -0.315333,-1.7486 0.2341,-2.27897 0.756392,-0.73015 2.339797,-0.51677 3.14683,-0.21133 0.0934,-0.69468 -0.129243,-1.49243 -0.657533,-1.94693 -0.52829,-0.45451 -1.136067,-0.53735 -1.651497,-0.52027 -1.0309,0.0341 -1.92956,0.33289 -2.63223,1.16623 -1.19277,1.41455 -1.20882,3.26426 -0.60236,4.70365 0.60646,1.43937 1.74001,2.6184 3.10441,3.26372 2.268847,1.07312 4.72155,0.79651 6.70174,-0.26048 1.9802,-1.05699 3.55901,-2.86413 4.32326,-5.006 2.18591,-6.12624 -2.00591,-12.44868 -7.86217,-14.20557 -7.69973,-2.30991 -15.447531,2.98081 -17.426109,10.41046 -2.468693,9.27 3.935141,18.46864 12.937619,20.66534 10.83941,2.64494 21.5009,-4.88061 23.91366,-15.45535 2.83116,-12.40856 -5.81798,-24.5421 -17.96447,-27.16961 -13.977657,-3.02364 -27.586206,6.75685 -30.427634,20.47472 -3.220236,15.54677 7.688944,30.63105 22.977894,33.68576 6.41846,1.28242 12.75895,0.3916 18.3503,-2.11282 9.31894,-4.17402 16.55418,-12.82924 18.59641,-23.36661 3.62089,-18.68269 -9.54635,-36.72576 -27.97308,-40.20918 -0.002,-4.5e-4 -0.004,-0.001 -0.007,-0.002 C 86.645355,145.21394 74.400283,128.32664 77.816701,110.97809 80.888703,95.378538 96.29295,84.253286 112.07249,87.455352 c 14.0336,2.847775 24.03326,16.766438 21.04586,30.973988 -2.62166,12.46825 -15.05409,21.34335 -27.68884,18.57045 -10.90373,-2.39299 -18.660162,-13.34067 -16.10154,-24.40135 2.16067,-9.34038 11.62661,-15.977729 21.11136,-13.633138 7.77864,1.922868 13.3056,9.908798 11.17477,17.814518 -1.67628,6.21932 -8.18957,10.64169 -14.51074,8.72462 -4.66336,-1.4143 -7.996533,-6.46319 -6.29446,-11.18854 0.56027,-1.55538 1.78461,-2.94982 3.23038,-3.71596 1.44573,-0.76616 3.04206,-0.93436 4.59322,-0.195 0.77127,0.36764 1.58233,1.20681 1.93915,2.06089 0.34356,0.82234 0.34139,1.67752 -0.17689,2.19937 -0.75726,0.76247 -2.35073,0.40351 -3.21162,0.2805 -0.0955,0.69436 0.12468,1.49301 0.65158,1.94911 0.52692,0.45608 1.13428,0.54041 1.64978,0.52488 1.03098,-0.031 1.93094,-0.32715 2.63612,-1.15838 1.19701,-1.41095 1.21871,-3.26033 0.61656,-4.70152 -0.60213,-1.4412 -1.73211,-2.62407 -3.09457,-3.27349 -2.26559,-1.07992 -4.71956,-0.8104 -6.7029,0.24064 -1.98338,1.05103 -3.567393,2.85319 -4.33808,4.99277 -2.2043,6.11963 1.96839,12.45502 7.81936,14.22948 7.69274,2.33305 15.45694,-2.93479 17.45783,-10.35843 2.49653,-9.26256 -3.8803,-18.480028 -12.87613,-20.70377 -10.83142,-2.677492 -21.51512,4.81599 -23.959629,15.38342 -2.868442,12.4 5.744119,24.55898 17.882669,27.22298 13.9685,3.06561 27.60645,-6.67337 30.48908,-20.38263 0.91882,-4.3698 0.71976,-8.70641 -0.38075,-12.75176 z"
         sodipodi:nodetypes="cscccccssssssssssssacscssssssssssssssccssssssssscssacscssssssssssscc" />
    </g>
  </g>
</svg>
